<?xml version="1.0" encoding="UTF-8" standalone="no"?>
<!DOCTYPE svg PUBLIC "-//W3C//DTD SVG 1.1//EN" "http://www.w3.org/Graphics/SVG/1.1/DTD/svg11.dtd">
<svg version="1.1" xmlns="http://www.w3.org/2000/svg" xmlns:xlink="http://www.w3.org/1999/xlink" preserveAspectRatio="xMidYMid meet" viewBox="0 0 640 640" width="640" height="640"><defs><path d="M192.39 489.84C167.52 548.76 153.7 581.49 150.94 588.03C255.38 654.28 388.77 653.95 492.88 587.19C490.05 580.7 475.88 548.25 450.37 489.84L192.39 489.84Z" id="aeFykXi30"></path><path d="M386.45 7.69C408 53.86 580.44 423.28 601.99 469.46C626.74 423.27 639.64 371.66 639.54 319.25C639.54 168.59 533.91 38.56 386.45 7.69Z" id="gZ8apCfFI"></path><path d="M3.92 343.26C7.42 389.4 20.94 434.23 43.55 474.61C62.74 433.26 216.25 102.4 235.43 61.04C235.43 61.04 253.75 11.31 297.11 2C121.91 15.28 -9.35 168.06 3.92 343.26Z" id="b4cmgPzyCN"></path><path d="M400.72 374.43L319.09 182.13L238.37 374.43L238.37 374.43L400.72 374.43Z" id="b2tCyrxWMt"></path></defs><g><g><g><use xlink:href="#aeFykXi30" opacity="1" fill="#0e415a" fill-opacity="1"></use><g><use xlink:href="#aeFykXi30" opacity="1" fill-opacity="0" stroke="#000000" stroke-width="1" stroke-opacity="0"></use></g></g><g><use xlink:href="#gZ8apCfFI" opacity="1" fill="#0b7384" fill-opacity="1"></use><g><use xlink:href="#gZ8apCfFI" opacity="1" fill-opacity="0" stroke="#000000" stroke-width="1" stroke-opacity="0"></use></g></g><g><use xlink:href="#b4cmgPzyCN" opacity="1" fill="#53a00a" fill-opacity="1"></use><g><use xlink:href="#b4cmgPzyCN" opacity="1" fill-opacity="0" stroke="#000000" stroke-width="1" stroke-opacity="0"></use></g></g><g><use xlink:href="#b2tCyrxWMt" opacity="1" fill="#d64405" fill-opacity="1"></use><g><use xlink:href="#b2tCyrxWMt" opacity="1" fill-opacity="0" stroke="#000000" stroke-width="1" stroke-opacity="0"></use></g></g></g></g></svg>